<svg width="7228" height="246" viewBox="0 0 7228 246" fill="none" xmlns="http://www.w3.org/2000/svg">
  <g opacity="0.7">
    <rect x="-2" y="158" width="100" height="100" fill="#612DF6" />
  </g>
  <g opacity="0.7">
    <rect x="45" y="158" width="100" height="100" fill="#EB498A" />
  </g>
  <path
    d="M7086.79 3.91H7082.55V16H7079.54V3.91H7075.3V1.49H7086.79V3.91ZM7090.26 6.7C7090.46 6.52667 7090.66 6.37 7090.86 6.23C7091.08 6.08333 7091.3 5.96 7091.53 5.86C7091.77 5.75333 7092.03 5.67333 7092.29 5.62C7092.57 5.56 7092.86 5.53 7093.17 5.53C7093.73 5.53 7094.23 5.62667 7094.66 5.82C7095.1 6.01333 7095.46 6.28333 7095.75 6.63C7096.05 6.97667 7096.28 7.39 7096.42 7.87C7096.58 8.35 7096.65 8.87667 7096.65 9.45V16H7093.9V9.45C7093.9 8.87667 7093.77 8.43333 7093.5 8.12C7093.24 7.8 7092.84 7.64 7092.32 7.64C7091.94 7.64 7091.57 7.72333 7091.23 7.89C7090.89 8.05667 7090.57 8.29 7090.26 8.59V16H7087.5V1.09H7090.26V6.7ZM7101.16 5.69V16H7098.4V5.69H7101.16ZM7101.49 2.76C7101.49 2.99333 7101.44 3.21 7101.35 3.41C7101.25 3.61 7101.13 3.78667 7100.97 3.94C7100.81 4.09333 7100.63 4.21333 7100.42 4.3C7100.21 4.38667 7099.99 4.43 7099.75 4.43C7099.52 4.43 7099.3 4.38667 7099.1 4.3C7098.9 4.21333 7098.72 4.09333 7098.57 3.94C7098.41 3.78667 7098.29 3.61 7098.2 3.41C7098.11 3.21 7098.07 2.99333 7098.07 2.76C7098.07 2.52667 7098.11 2.31 7098.2 2.11C7098.29 1.90333 7098.41 1.72333 7098.57 1.57C7098.72 1.41667 7098.9 1.29667 7099.1 1.21C7099.3 1.12333 7099.52 1.08 7099.75 1.08C7099.99 1.08 7100.21 1.12333 7100.42 1.21C7100.63 1.29667 7100.81 1.41667 7100.97 1.57C7101.13 1.72333 7101.25 1.90333 7101.35 2.11C7101.44 2.31 7101.49 2.52667 7101.49 2.76ZM7109.39 7.81C7109.32 7.92333 7109.24 8.00667 7109.16 8.06C7109.09 8.10667 7108.98 8.13 7108.85 8.13C7108.72 8.13 7108.58 8.09667 7108.44 8.03C7108.3 7.96333 7108.14 7.89333 7107.97 7.82C7107.8 7.74 7107.6 7.66667 7107.37 7.6C7107.15 7.53333 7106.89 7.5 7106.6 7.5C7106.15 7.5 7105.81 7.59333 7105.56 7.78C7105.31 7.96 7105.19 8.2 7105.19 8.5C7105.19 8.70667 7105.26 8.88 7105.4 9.02C7105.54 9.16 7105.72 9.28333 7105.95 9.39C7106.18 9.49 7106.45 9.58667 7106.74 9.68C7107.03 9.76667 7107.33 9.86333 7107.64 9.97C7107.95 10.0767 7108.26 10.2 7108.55 10.34C7108.84 10.48 7109.1 10.6567 7109.33 10.87C7109.56 11.0767 7109.75 11.33 7109.89 11.63C7110.03 11.9233 7110.1 12.28 7110.1 12.7C7110.1 13.2 7110.01 13.6633 7109.82 14.09C7109.64 14.51 7109.37 14.8733 7109.02 15.18C7108.67 15.4867 7108.23 15.7267 7107.7 15.9C7107.17 16.0733 7106.57 16.16 7105.88 16.16C7105.53 16.16 7105.18 16.1267 7104.83 16.06C7104.48 16 7104.15 15.9133 7103.84 15.8C7103.53 15.68 7103.23 15.5433 7102.96 15.39C7102.69 15.2367 7102.45 15.07 7102.25 14.89L7102.89 13.86C7102.96 13.74 7103.05 13.6467 7103.16 13.58C7103.27 13.5133 7103.42 13.48 7103.59 13.48C7103.76 13.48 7103.91 13.5233 7104.05 13.61C7104.19 13.69 7104.35 13.78 7104.52 13.88C7104.69 13.9733 7104.9 14.0633 7105.13 14.15C7105.37 14.23 7105.67 14.27 7106.02 14.27C7106.29 14.27 7106.52 14.24 7106.71 14.18C7106.9 14.12 7107.06 14.04 7107.18 13.94C7107.3 13.8333 7107.39 13.7167 7107.44 13.59C7107.5 13.4567 7107.53 13.32 7107.53 13.18C7107.53 12.9533 7107.46 12.77 7107.31 12.63C7107.17 12.4833 7106.98 12.3567 7106.75 12.25C7106.52 12.1433 7106.26 12.0467 7105.96 11.96C7105.66 11.8733 7105.35 11.7767 7105.04 11.67C7104.73 11.5633 7104.43 11.4367 7104.13 11.29C7103.84 11.1433 7103.57 10.96 7103.34 10.74C7103.11 10.5133 7102.93 10.2367 7102.78 9.91C7102.64 9.58333 7102.57 9.18667 7102.57 8.72C7102.57 8.29333 7102.65 7.89 7102.82 7.51C7102.99 7.12333 7103.24 6.78333 7103.57 6.49C7103.9 6.19667 7104.32 5.96333 7104.81 5.79C7105.31 5.61667 7105.89 5.53 7106.54 5.53C7107.27 5.53 7107.94 5.65 7108.54 5.89C7109.14 6.13 7109.63 6.44333 7110.02 6.83L7109.39 7.81ZM7130.05 5.69L7126.81 16H7124.58C7124.46 16 7124.36 15.9633 7124.27 15.89C7124.18 15.8167 7124.11 15.6933 7124.07 15.52L7122.39 9.94C7122.32 9.72667 7122.26 9.51667 7122.21 9.31C7122.16 9.09667 7122.12 8.88333 7122.08 8.67C7122.03 8.88333 7121.98 9.1 7121.93 9.32C7121.88 9.53333 7121.82 9.74667 7121.76 9.96L7120.06 15.52C7119.96 15.84 7119.76 16 7119.46 16H7117.34L7114.1 5.69H7116.3C7116.5 5.69 7116.66 5.73667 7116.8 5.83C7116.94 5.92333 7117.03 6.04333 7117.08 6.19L7118.35 11.29C7118.43 11.6167 7118.5 11.9333 7118.56 12.24C7118.62 12.5467 7118.67 12.85 7118.73 13.15C7118.81 12.85 7118.89 12.5467 7118.98 12.24C7119.07 11.9333 7119.17 11.6167 7119.27 11.29L7120.78 6.17C7120.82 6.03 7120.91 5.91333 7121.05 5.82C7121.18 5.72667 7121.34 5.68 7121.52 5.68H7122.74C7122.93 5.68 7123.09 5.72667 7123.23 5.82C7123.37 5.91333 7123.46 6.03 7123.51 6.17L7124.97 11.29C7125.06 11.61 7125.15 11.9267 7125.24 12.24C7125.32 12.5467 7125.4 12.8567 7125.48 13.17C7125.53 12.8633 7125.59 12.5567 7125.65 12.25C7125.71 11.9367 7125.79 11.6167 7125.88 11.29L7127.21 6.19C7127.25 6.04333 7127.34 5.92333 7127.48 5.83C7127.61 5.73667 7127.77 5.69 7127.95 5.69H7130.05ZM7137.14 9.63C7137.14 9.34333 7137.1 9.07 7137.02 8.81C7136.95 8.55 7136.83 8.32 7136.66 8.12C7136.49 7.92 7136.28 7.76333 7136.03 7.65C7135.78 7.53 7135.47 7.47 7135.12 7.47C7134.46 7.47 7133.94 7.65667 7133.57 8.03C7133.2 8.40333 7132.95 8.93667 7132.84 9.63H7137.14ZM7132.8 11.27C7132.89 12.2367 7133.16 12.9433 7133.62 13.39C7134.09 13.8367 7134.69 14.06 7135.44 14.06C7135.82 14.06 7136.15 14.0167 7136.42 13.93C7136.7 13.8367 7136.94 13.7367 7137.15 13.63C7137.36 13.5167 7137.55 13.4167 7137.72 13.33C7137.89 13.2367 7138.06 13.19 7138.23 13.19C7138.44 13.19 7138.61 13.27 7138.73 13.43L7139.53 14.43C7139.24 14.77 7138.91 15.0533 7138.56 15.28C7138.21 15.5 7137.84 15.6767 7137.46 15.81C7137.08 15.9367 7136.7 16.0233 7136.31 16.07C7135.92 16.1233 7135.55 16.15 7135.19 16.15C7134.47 16.15 7133.8 16.0333 7133.17 15.8C7132.55 15.56 7132.01 15.21 7131.54 14.75C7131.08 14.2833 7130.72 13.7067 7130.45 13.02C7130.18 12.3333 7130.05 11.5367 7130.05 10.63C7130.05 9.93 7130.16 9.27 7130.39 8.65C7130.62 8.03 7130.96 7.49 7131.39 7.03C7131.82 6.57 7132.35 6.20667 7132.97 5.94C7133.59 5.66667 7134.29 5.53 7135.07 5.53C7135.73 5.53 7136.34 5.63667 7136.89 5.85C7137.45 6.05667 7137.93 6.36 7138.33 6.76C7138.74 7.16 7139.05 7.65333 7139.27 8.24C7139.5 8.82 7139.61 9.48333 7139.61 10.23C7139.61 10.4367 7139.6 10.6067 7139.58 10.74C7139.56 10.8733 7139.53 10.98 7139.48 11.06C7139.43 11.14 7139.37 11.1967 7139.29 11.23C7139.21 11.2567 7139.11 11.27 7138.98 11.27H7132.8ZM7147.33 9.63C7147.33 9.34333 7147.29 9.07 7147.21 8.81C7147.14 8.55 7147.02 8.32 7146.85 8.12C7146.68 7.92 7146.47 7.76333 7146.22 7.65C7145.97 7.53 7145.66 7.47 7145.31 7.47C7144.65 7.47 7144.13 7.65667 7143.76 8.03C7143.39 8.40333 7143.14 8.93667 7143.03 9.63H7147.33ZM7142.99 11.27C7143.08 12.2367 7143.35 12.9433 7143.81 13.39C7144.28 13.8367 7144.88 14.06 7145.63 14.06C7146.01 14.06 7146.34 14.0167 7146.61 13.93C7146.89 13.8367 7147.13 13.7367 7147.34 13.63C7147.55 13.5167 7147.74 13.4167 7147.91 13.33C7148.08 13.2367 7148.25 13.19 7148.42 13.19C7148.63 13.19 7148.8 13.27 7148.92 13.43L7149.72 14.43C7149.43 14.77 7149.1 15.0533 7148.75 15.28C7148.4 15.5 7148.03 15.6767 7147.65 15.81C7147.27 15.9367 7146.89 16.0233 7146.5 16.07C7146.11 16.1233 7145.74 16.15 7145.38 16.15C7144.66 16.15 7143.99 16.0333 7143.36 15.8C7142.74 15.56 7142.2 15.21 7141.73 14.75C7141.27 14.2833 7140.91 13.7067 7140.64 13.02C7140.37 12.3333 7140.24 11.5367 7140.24 10.63C7140.24 9.93 7140.35 9.27 7140.58 8.65C7140.81 8.03 7141.15 7.49 7141.58 7.03C7142.01 6.57 7142.54 6.20667 7143.16 5.94C7143.78 5.66667 7144.48 5.53 7145.26 5.53C7145.92 5.53 7146.53 5.63667 7147.08 5.85C7147.64 6.05667 7148.12 6.36 7148.52 6.76C7148.93 7.16 7149.24 7.65333 7149.46 8.24C7149.69 8.82 7149.8 9.48333 7149.8 10.23C7149.8 10.4367 7149.79 10.6067 7149.77 10.74C7149.75 10.8733 7149.72 10.98 7149.67 11.06C7149.62 11.14 7149.56 11.1967 7149.48 11.23C7149.4 11.2567 7149.3 11.27 7149.17 11.27H7142.99ZM7153.74 1.09V9.55H7154.2C7154.37 9.55 7154.51 9.52667 7154.61 9.48C7154.71 9.42667 7154.81 9.33333 7154.91 9.2L7157.19 6.16C7157.3 6.00667 7157.43 5.89 7157.57 5.81C7157.72 5.73 7157.9 5.69 7158.12 5.69H7160.64L7157.68 9.45C7157.45 9.76333 7157.18 10.01 7156.87 10.19C7157.02 10.2967 7157.16 10.42 7157.27 10.56C7157.38 10.7 7157.49 10.8567 7157.6 11.03L7160.79 16H7158.31C7158.1 16 7157.91 15.9667 7157.76 15.9C7157.61 15.8267 7157.48 15.7 7157.38 15.52L7155.06 11.73C7154.97 11.57 7154.87 11.4667 7154.77 11.42C7154.67 11.3733 7154.52 11.35 7154.32 11.35H7153.74V16H7150.98V1.09H7153.74ZM7163.24 0.529999C7163.58 1.07667 7163.8 1.64333 7163.92 2.23C7164.04 2.81667 7164.05 3.39667 7163.95 3.97C7163.85 4.53667 7163.64 5.08333 7163.32 5.61C7163 6.13667 7162.58 6.61 7162.05 7.03L7161.19 6.51C7161.11 6.46333 7161.05 6.41 7161.02 6.35C7160.99 6.28333 7160.98 6.22 7160.98 6.16C7160.98 6.09333 7161 6.03333 7161.03 5.98C7161.05 5.92 7161.09 5.87 7161.13 5.83C7161.25 5.68333 7161.38 5.48 7161.51 5.22C7161.64 4.95333 7161.73 4.65333 7161.79 4.32C7161.84 3.98 7161.84 3.61333 7161.78 3.22C7161.72 2.82667 7161.56 2.43 7161.32 2.03C7161.18 1.82333 7161.15 1.64333 7161.21 1.49C7161.27 1.33 7161.39 1.22 7161.57 1.16L7163.24 0.529999ZM7171.25 7.81C7171.18 7.92333 7171.1 8.00667 7171.02 8.06C7170.95 8.10667 7170.84 8.13 7170.71 8.13C7170.58 8.13 7170.44 8.09667 7170.3 8.03C7170.16 7.96333 7170 7.89333 7169.83 7.82C7169.66 7.74 7169.46 7.66667 7169.23 7.6C7169.01 7.53333 7168.75 7.5 7168.46 7.5C7168.01 7.5 7167.67 7.59333 7167.42 7.78C7167.17 7.96 7167.05 8.2 7167.05 8.5C7167.05 8.70667 7167.12 8.88 7167.26 9.02C7167.4 9.16 7167.58 9.28333 7167.81 9.39C7168.04 9.49 7168.31 9.58667 7168.6 9.68C7168.89 9.76667 7169.19 9.86333 7169.5 9.97C7169.81 10.0767 7170.12 10.2 7170.41 10.34C7170.7 10.48 7170.96 10.6567 7171.19 10.87C7171.42 11.0767 7171.61 11.33 7171.75 11.63C7171.89 11.9233 7171.96 12.28 7171.96 12.7C7171.96 13.2 7171.87 13.6633 7171.68 14.09C7171.5 14.51 7171.23 14.8733 7170.88 15.18C7170.53 15.4867 7170.09 15.7267 7169.56 15.9C7169.03 16.0733 7168.43 16.16 7167.74 16.16C7167.39 16.16 7167.04 16.1267 7166.69 16.06C7166.34 16 7166.01 15.9133 7165.7 15.8C7165.39 15.68 7165.09 15.5433 7164.82 15.39C7164.55 15.2367 7164.31 15.07 7164.11 14.89L7164.75 13.86C7164.82 13.74 7164.91 13.6467 7165.02 13.58C7165.13 13.5133 7165.28 13.48 7165.45 13.48C7165.62 13.48 7165.77 13.5233 7165.91 13.61C7166.05 13.69 7166.21 13.78 7166.38 13.88C7166.55 13.9733 7166.76 14.0633 7166.99 14.15C7167.23 14.23 7167.53 14.27 7167.88 14.27C7168.15 14.27 7168.38 14.24 7168.57 14.18C7168.76 14.12 7168.92 14.04 7169.04 13.94C7169.16 13.8333 7169.25 13.7167 7169.3 13.59C7169.36 13.4567 7169.39 13.32 7169.39 13.18C7169.39 12.9533 7169.32 12.77 7169.17 12.63C7169.03 12.4833 7168.84 12.3567 7168.61 12.25C7168.38 12.1433 7168.12 12.0467 7167.82 11.96C7167.52 11.8733 7167.21 11.7767 7166.9 11.67C7166.59 11.5633 7166.29 11.4367 7165.99 11.29C7165.7 11.1433 7165.43 10.96 7165.2 10.74C7164.97 10.5133 7164.79 10.2367 7164.64 9.91C7164.5 9.58333 7164.43 9.18667 7164.43 8.72C7164.43 8.29333 7164.51 7.89 7164.68 7.51C7164.85 7.12333 7165.1 6.78333 7165.43 6.49C7165.76 6.19667 7166.18 5.96333 7166.67 5.79C7167.17 5.61667 7167.75 5.53 7168.4 5.53C7169.13 5.53 7169.8 5.65 7170.4 5.89C7171 6.13 7171.49 6.44333 7171.88 6.83L7171.25 7.81ZM7180.93 16.16C7180.46 16.16 7180.05 16.0933 7179.69 15.96C7179.33 15.82 7179.02 15.6233 7178.78 15.37C7178.53 15.1167 7178.34 14.81 7178.22 14.45C7178.09 14.09 7178.03 13.6833 7178.03 13.23V7.67H7177.06C7176.91 7.67 7176.78 7.62333 7176.68 7.53C7176.58 7.43667 7176.53 7.29667 7176.53 7.11V6.03L7178.18 5.73L7178.74 3.06C7178.81 2.76 7179.01 2.61 7179.35 2.61H7180.79V5.75H7183.45V7.67H7180.79V13.05C7180.79 13.3367 7180.85 13.5633 7180.99 13.73C7181.13 13.8967 7181.32 13.98 7181.58 13.98C7181.71 13.98 7181.82 13.9667 7181.92 13.94C7182.01 13.9067 7182.09 13.8733 7182.16 13.84C7182.22 13.8 7182.28 13.7667 7182.34 13.74C7182.4 13.7067 7182.46 13.69 7182.52 13.69C7182.6 13.69 7182.66 13.71 7182.72 13.75C7182.77 13.7833 7182.82 13.8433 7182.88 13.93L7183.71 15.25C7183.33 15.55 7182.9 15.7767 7182.42 15.93C7181.94 16.0833 7181.44 16.16 7180.93 16.16ZM7188.95 5.53C7189.72 5.53 7190.42 5.65333 7191.06 5.9C7191.69 6.14667 7192.23 6.5 7192.69 6.96C7193.14 7.41333 7193.49 7.96667 7193.74 8.62C7193.98 9.27333 7194.11 10.01 7194.11 10.83C7194.11 11.65 7193.98 12.39 7193.74 13.05C7193.49 13.7033 7193.14 14.26 7192.69 14.72C7192.23 15.18 7191.69 15.5333 7191.06 15.78C7190.42 16.0267 7189.72 16.15 7188.95 16.15C7188.17 16.15 7187.46 16.0267 7186.82 15.78C7186.18 15.5333 7185.64 15.18 7185.19 14.72C7184.73 14.26 7184.38 13.7033 7184.13 13.05C7183.88 12.39 7183.76 11.65 7183.76 10.83C7183.76 10.01 7183.88 9.27333 7184.13 8.62C7184.38 7.96667 7184.73 7.41333 7185.19 6.96C7185.64 6.5 7186.18 6.14667 7186.82 5.9C7187.46 5.65333 7188.17 5.53 7188.95 5.53ZM7188.95 14.08C7189.73 14.08 7190.32 13.81 7190.7 13.27C7191.08 12.7233 7191.27 11.9133 7191.27 10.84C7191.27 9.77333 7191.08 8.97 7190.7 8.43C7190.32 7.88333 7189.73 7.61 7188.95 7.61C7188.14 7.61 7187.55 7.88333 7187.17 8.43C7186.79 8.97 7186.6 9.77333 7186.6 10.84C7186.6 11.9133 7186.79 12.7233 7187.17 13.27C7187.55 13.81 7188.14 14.08 7188.95 14.08ZM7198.07 13.28C7198.33 13.58 7198.61 13.79 7198.91 13.91C7199.21 14.03 7199.54 14.09 7199.89 14.09C7200.22 14.09 7200.52 14.0267 7200.8 13.9C7201.07 13.7733 7201.3 13.5767 7201.5 13.31C7201.7 13.0367 7201.85 12.69 7201.96 12.27C7202.06 11.85 7202.12 11.35 7202.12 10.77C7202.12 10.1967 7202.07 9.71 7201.98 9.31C7201.89 8.91 7201.76 8.58667 7201.6 8.34C7201.44 8.09333 7201.24 7.91667 7201.01 7.81C7200.77 7.69667 7200.51 7.64 7200.23 7.64C7199.74 7.64 7199.33 7.73667 7199 7.93C7198.67 8.11667 7198.36 8.39333 7198.07 8.76V13.28ZM7197.91 7.04C7198.11 6.81333 7198.33 6.60667 7198.57 6.42C7198.8 6.22667 7199.05 6.06333 7199.32 5.93C7199.58 5.79 7199.87 5.68333 7200.18 5.61C7200.48 5.53 7200.82 5.49 7201.18 5.49C7201.73 5.49 7202.24 5.61 7202.7 5.85C7203.16 6.08333 7203.56 6.42667 7203.9 6.88C7204.23 7.32667 7204.49 7.87667 7204.68 8.53C7204.86 9.18333 7204.96 9.93 7204.96 10.77C7204.96 11.5433 7204.85 12.26 7204.64 12.92C7204.43 13.5733 7204.13 14.14 7203.75 14.62C7203.36 15.1 7202.89 15.4767 7202.35 15.75C7201.81 16.0167 7201.2 16.15 7200.54 16.15C7199.98 16.15 7199.5 16.0667 7199.11 15.9C7198.72 15.7333 7198.37 15.5067 7198.07 15.22V19.33H7195.31V5.69H7197.01C7197.35 5.69 7197.58 5.85 7197.7 6.17L7197.91 7.04ZM7209.04 5.69V16H7206.28V5.69H7209.04ZM7209.37 2.76C7209.37 2.99333 7209.32 3.21 7209.23 3.41C7209.14 3.61 7209.01 3.78667 7208.85 3.94C7208.7 4.09333 7208.51 4.21333 7208.3 4.3C7208.09 4.38667 7207.87 4.43 7207.63 4.43C7207.4 4.43 7207.19 4.38667 7206.98 4.3C7206.78 4.21333 7206.6 4.09333 7206.45 3.94C7206.3 3.78667 7206.17 3.61 7206.08 3.41C7205.99 3.21 7205.95 2.99333 7205.95 2.76C7205.95 2.52667 7205.99 2.31 7206.08 2.11C7206.17 1.90333 7206.3 1.72333 7206.45 1.57C7206.6 1.41667 7206.78 1.29667 7206.98 1.21C7207.19 1.12333 7207.4 1.08 7207.63 1.08C7207.87 1.08 7208.09 1.12333 7208.3 1.21C7208.51 1.29667 7208.7 1.41667 7208.85 1.57C7209.01 1.72333 7209.14 1.90333 7209.23 2.11C7209.32 2.31 7209.37 2.52667 7209.37 2.76ZM7218.34 7.99C7218.26 8.09667 7218.18 8.18 7218.1 8.24C7218.02 8.29333 7217.91 8.32 7217.76 8.32C7217.63 8.32 7217.5 8.28333 7217.37 8.21C7217.25 8.13 7217.11 8.04667 7216.95 7.96C7216.79 7.86667 7216.6 7.78333 7216.38 7.71C7216.16 7.63 7215.89 7.59 7215.56 7.59C7215.15 7.59 7214.79 7.66667 7214.48 7.82C7214.18 7.96667 7213.93 8.18 7213.73 8.46C7213.53 8.74 7213.38 9.08 7213.28 9.48C7213.19 9.88 7213.14 10.33 7213.14 10.83C7213.14 11.8833 7213.35 12.69 7213.77 13.25C7214.2 13.81 7214.78 14.09 7215.51 14.09C7215.77 14.09 7215.98 14.07 7216.16 14.03C7216.35 13.9833 7216.51 13.9267 7216.64 13.86C7216.78 13.7933 7216.9 13.72 7217 13.64C7217.1 13.56 7217.2 13.4867 7217.28 13.42C7217.38 13.3533 7217.47 13.3 7217.55 13.26C7217.65 13.2133 7217.75 13.19 7217.86 13.19C7218.08 13.19 7218.24 13.27 7218.36 13.43L7219.15 14.43C7218.86 14.77 7218.55 15.0533 7218.21 15.28C7217.88 15.5 7217.53 15.6767 7217.17 15.81C7216.82 15.9367 7216.46 16.0233 7216.09 16.07C7215.73 16.1233 7215.36 16.15 7215 16.15C7214.37 16.15 7213.77 16.0333 7213.2 15.8C7212.64 15.56 7212.14 15.2133 7211.71 14.76C7211.29 14.3067 7210.95 13.75 7210.69 13.09C7210.45 12.43 7210.32 11.6767 7210.32 10.83C7210.32 10.0767 7210.43 9.37667 7210.65 8.73C7210.87 8.08333 7211.2 7.52333 7211.62 7.05C7212.05 6.57667 7212.58 6.20667 7213.2 5.94C7213.84 5.66667 7214.57 5.53 7215.39 5.53C7216.18 5.53 7216.87 5.65667 7217.46 5.91C7218.06 6.16333 7218.59 6.53 7219.06 7.01L7218.34 7.99ZM7226.43 7.81C7226.35 7.92333 7226.28 8.00667 7226.2 8.06C7226.12 8.10667 7226.02 8.13 7225.89 8.13C7225.75 8.13 7225.62 8.09667 7225.48 8.03C7225.34 7.96333 7225.18 7.89333 7225.01 7.82C7224.83 7.74 7224.63 7.66667 7224.41 7.6C7224.19 7.53333 7223.93 7.5 7223.64 7.5C7223.19 7.5 7222.84 7.59333 7222.6 7.78C7222.35 7.96 7222.23 8.2 7222.23 8.5C7222.23 8.70667 7222.3 8.88 7222.44 9.02C7222.58 9.16 7222.76 9.28333 7222.99 9.39C7223.22 9.49 7223.48 9.58667 7223.78 9.68C7224.07 9.76667 7224.37 9.86333 7224.68 9.97C7224.99 10.0767 7225.29 10.2 7225.59 10.34C7225.88 10.48 7226.14 10.6567 7226.37 10.87C7226.6 11.0767 7226.79 11.33 7226.93 11.63C7227.07 11.9233 7227.14 12.28 7227.14 12.7C7227.14 13.2 7227.04 13.6633 7226.86 14.09C7226.68 14.51 7226.41 14.8733 7226.06 15.18C7225.7 15.4867 7225.26 15.7267 7224.74 15.9C7224.21 16.0733 7223.6 16.16 7222.92 16.16C7222.56 16.16 7222.21 16.1267 7221.87 16.06C7221.52 16 7221.19 15.9133 7220.88 15.8C7220.56 15.68 7220.27 15.5433 7220 15.39C7219.72 15.2367 7219.49 15.07 7219.29 14.89L7219.93 13.86C7220 13.74 7220.09 13.6467 7220.2 13.58C7220.31 13.5133 7220.45 13.48 7220.63 13.48C7220.79 13.48 7220.95 13.5233 7221.09 13.61C7221.23 13.69 7221.38 13.78 7221.56 13.88C7221.73 13.9733 7221.93 14.0633 7222.17 14.15C7222.41 14.23 7222.7 14.27 7223.06 14.27C7223.32 14.27 7223.55 14.24 7223.75 14.18C7223.94 14.12 7224.1 14.04 7224.22 13.94C7224.34 13.8333 7224.42 13.7167 7224.48 13.59C7224.54 13.4567 7224.57 13.32 7224.57 13.18C7224.57 12.9533 7224.49 12.77 7224.35 12.63C7224.21 12.4833 7224.02 12.3567 7223.79 12.25C7223.56 12.1433 7223.3 12.0467 7223 11.96C7222.7 11.8733 7222.39 11.7767 7222.08 11.67C7221.77 11.5633 7221.47 11.4367 7221.17 11.29C7220.87 11.1433 7220.61 10.96 7220.38 10.74C7220.15 10.5133 7219.96 10.2367 7219.82 9.91C7219.68 9.58333 7219.61 9.18667 7219.61 8.72C7219.61 8.29333 7219.69 7.89 7219.86 7.51C7220.02 7.12333 7220.27 6.78333 7220.61 6.49C7220.94 6.19667 7221.35 5.96333 7221.85 5.79C7222.35 5.61667 7222.92 5.53 7223.58 5.53C7224.31 5.53 7224.98 5.65 7225.58 5.89C7226.18 6.13 7226.67 6.44333 7227.06 6.83L7226.43 7.81Z"
    fill="white" />
</svg>
  